<svg id="Layer_1" enable-background="new 0 0 512 512" height="45" viewBox="0 0 512 512" width="45" xmlns="http://www.w3.org/2000/svg"><g><path d="m497 0h-482c-8.284 0-15 6.716-15 15v401.667c0 52.566 42.767 95.333 95.333 95.333h401.667c8.284 0 15-6.716 15-15v-482c0-8.284-6.716-15-15-15zm-416.667 480.263c-24-5.661-42.936-24.596-48.596-48.596h48.596zm401.667 1.737h-371.667v-65.333c0-8.284-6.716-15-15-15h-65.333v-371.667h452z"/><path d="m79.267 94.267h144.6c8.284 0 15-6.716 15-15s-6.716-15-15-15h-144.6c-8.284 0-15 6.716-15 15s6.715 15 15 15z"/><path d="m79.267 303.133h144.6c8.284 0 15-6.716 15-15s-6.716-15-15-15h-144.6c-8.284 0-15 6.716-15 15s6.715 15 15 15z"/><path d="m79.267 158.533h80.333c8.284 0 15-6.716 15-15s-6.716-15-15-15h-80.333c-8.284 0-15 6.716-15 15s6.715 15 15 15z"/><path d="m79.267 367.4h80.333c8.284 0 15-6.716 15-15s-6.716-15-15-15h-80.333c-8.284 0-15 6.716-15 15s6.715 15 15 15z"/><path d="m288.133 447.733h144.6c8.284 0 15-6.716 15-15v-144.6c0-8.284-6.716-15-15-15h-144.6c-8.284 0-15 6.716-15 15v144.6c0 8.285 6.716 15 15 15zm15-144.6h114.6v114.6h-114.6z"/><path d="m288.133 238.867h144.6c8.284 0 15-6.716 15-15v-144.6c0-8.284-6.716-15-15-15h-144.6c-8.284 0-15 6.716-15 15v144.6c0 8.284 6.716 15 15 15zm15-144.6h109.454l-52.154 52.153-5.46-5.459c-5.857-5.858-15.355-5.858-21.213 0s-5.858 15.355 0 21.213l16.066 16.066c2.929 2.929 6.767 4.394 10.606 4.394 3.838 0 7.678-1.465 10.606-4.394l46.694-46.694v77.321h-114.6v-114.6z"/></g></svg>